<?xml version="1.0" encoding="utf-8"?>
<svg width="900px" height="300px" viewBox="0 0 900 300" version="1.1" xmlns:xlink="http://www.w3.org/1999/xlink" xmlns="http://www.w3.org/2000/svg">
  <defs>
    <path d="M892 0C896.419 0 900 3.58112 900 8L900 292C900 296.419 896.419 300 892 300L8 300C3.58112 300 0 296.419 0 292L0 8C0 3.58112 3.58112 0 8 0L892 0Z" id="path_1" />
    <path d="M0 0L578 0L578 119.136L0 119.136L0 0Z" id="path_2" />
    <clipPath id="clip_1">
      <use xlink:href="#path_1" clip-rule="evenodd" fill-rule="evenodd" />
    </clipPath>
    <clipPath id="clip_2">
      <use xlink:href="#path_2" clip-rule="evenodd" fill-rule="evenodd" transform="translate(0, -15.684185)" />
    </clipPath>
  </defs>
  <g id="banner" clip-path="url(#clip_1)">
    <path d="M892 0C896.419 0 900 3.58112 900 8L900 292C900 296.419 896.419 300 892 300L8 300C3.58112 300 0 296.419 0 292L0 8C0 3.58112 3.58112 0 8 0L892 0Z" id="banner" fill="#282831" stroke="none" />
    <g id="Group-3" transform="translate(94 82)">
      <g id="Blazor-Tasker" clip-path="url(#clip_2)" transform="translate(0 15.684185)">
        <g id="Blazor-Tasker" fill="#FFFFFF">
          <path d="M52.2 55.944Q52.2 62.64 47.088 66.168Q41.976 69.696 32.04 69.696L5.976 69.696L5.976 19.296L30.6 19.296Q39.888 19.296 44.784 22.788Q49.68 26.28 49.68 32.4Q49.68 36.072 47.952 38.952Q46.224 41.832 42.984 43.488Q47.304 44.856 49.752 48.024Q52.2 51.192 52.2 55.944ZM17.568 28.08L17.568 39.96L29.16 39.96Q37.944 39.96 37.944 33.984Q37.944 28.08 29.16 28.08L17.568 28.08ZM40.464 54.72Q40.464 48.456 31.176 48.456L17.568 48.456L17.568 60.912L31.176 60.912Q40.464 60.912 40.464 54.72ZM60.264 16.272L71.496 16.272L71.496 69.696L60.264 69.696L60.264 16.272ZM121.248 30.96L121.248 69.696L110.52 69.696L110.52 65.232Q106.344 70.272 98.424 70.272Q92.952 70.272 88.524 67.824Q84.096 65.376 81.576 60.84Q79.056 56.304 79.056 50.328Q79.056 44.352 81.576 39.816Q84.096 35.28 88.524 32.832Q92.952 30.384 98.424 30.384Q105.84 30.384 110.016 35.064L110.016 30.96L121.248 30.96ZM100.368 61.056Q104.616 61.056 107.424 58.14Q110.232 55.224 110.232 50.328Q110.232 45.432 107.424 42.516Q104.616 39.6 100.368 39.6Q96.048 39.6 93.24 42.516Q90.432 45.432 90.432 50.328Q90.432 55.224 93.24 58.14Q96.048 61.056 100.368 61.056ZM163.512 61.056L163.512 69.696L128.952 69.696L128.952 62.928L148.392 39.888L148.392 39.6L129.456 39.6L129.456 30.96L162.864 30.96L162.864 37.728L143.424 60.768L143.424 61.056L163.512 61.056ZM167.328 50.328Q167.328 46.008 168.912 42.336Q170.496 38.664 173.34 36Q176.184 33.336 180.108 31.86Q184.032 30.384 188.64 30.384Q193.248 30.384 197.136 31.86Q201.024 33.336 203.868 36Q206.712 38.664 208.296 42.336Q209.88 46.008 209.88 50.328Q209.88 54.648 208.296 58.32Q206.712 61.992 203.868 64.656Q201.024 67.32 197.136 68.796Q193.248 70.272 188.64 70.272Q184.032 70.272 180.108 68.796Q176.184 67.32 173.34 64.656Q170.496 61.992 168.912 58.32Q167.328 54.648 167.328 50.328ZM198.504 50.328Q198.504 47.88 197.784 45.9Q197.064 43.92 195.732 42.516Q194.4 41.112 192.6 40.356Q190.8 39.6 188.64 39.6Q186.48 39.6 184.644 40.356Q182.808 41.112 181.512 42.516Q180.216 43.92 179.46 45.9Q178.704 47.88 178.704 50.328Q178.704 52.776 179.46 54.756Q180.216 56.736 181.512 58.14Q182.808 59.544 184.644 60.3Q186.48 61.056 188.64 61.056Q190.8 61.056 192.6 60.3Q194.4 59.544 195.732 58.14Q197.064 56.736 197.784 54.756Q198.504 52.776 198.504 50.328ZM228.384 35.64Q230.472 33.048 233.784 31.716Q237.096 30.384 241.416 30.384L241.416 40.752Q240.48 40.68 239.868 40.644Q239.256 40.608 238.896 40.608Q234.072 40.608 231.336 43.308Q228.6 46.008 228.6 51.408L228.6 69.696L217.368 69.696L217.368 30.96L228.096 30.96L228.096 35.64L228.384 35.64ZM280.008 28.8L263.88 28.8L263.88 19.296L307.8 19.296L307.8 28.8L291.672 28.8L291.672 69.696L280.008 69.696L280.008 28.8ZM348.624 30.96L348.624 69.696L337.896 69.696L337.896 65.232Q333.72 70.272 325.8 70.272Q320.328 70.272 315.9 67.824Q311.472 65.376 308.952 60.84Q306.432 56.304 306.432 50.328Q306.432 44.352 308.952 39.816Q311.472 35.28 315.9 32.832Q320.328 30.384 325.8 30.384Q333.216 30.384 337.392 35.064L337.392 30.96L348.624 30.96ZM327.744 61.056Q331.992 61.056 334.8 58.14Q337.608 55.224 337.608 50.328Q337.608 45.432 334.8 42.516Q331.992 39.6 327.744 39.6Q323.424 39.6 320.616 42.516Q317.808 45.432 317.808 50.328Q317.808 55.224 320.616 58.14Q323.424 61.056 327.744 61.056ZM355.248 66.096L358.992 58.032Q361.584 59.688 365.256 60.732Q368.928 61.776 372.456 61.776Q379.584 61.776 379.584 58.248Q379.584 56.592 377.676 55.872Q375.768 55.152 371.664 54.648Q369.288 54.288 367.344 53.892Q365.4 53.496 363.816 52.992Q362.304 52.56 360.9 51.732Q359.496 50.904 358.452 49.68Q357.408 48.456 356.796 46.764Q356.184 45.072 356.184 42.912Q356.184 40.176 357.408 37.872Q358.632 35.568 360.936 33.912Q363.24 32.256 366.552 31.32Q369.864 30.384 374.112 30.384Q378.216 30.384 382.284 31.284Q386.352 32.184 389.016 33.768L385.272 41.76Q380.232 38.88 374.112 38.88Q370.44 38.88 368.676 39.888Q366.912 40.896 366.912 42.48Q366.912 44.28 368.82 45Q370.728 45.72 375.048 46.368Q379.8 47.16 382.824 48.096Q385.848 48.96 388.08 51.336Q390.312 53.712 390.312 57.96Q390.312 60.696 389.052 62.964Q387.792 65.232 385.452 66.852Q383.112 68.472 379.728 69.372Q376.344 70.272 372.024 70.272Q369.648 70.272 367.236 69.948Q364.824 69.624 362.628 69.084Q360.432 68.544 358.524 67.752Q356.616 66.96 355.248 66.096ZM413.856 54.504L408.456 59.832L408.456 69.696L397.224 69.696L397.224 16.272L408.456 16.272L408.456 46.512L424.872 30.96L438.264 30.96L422.136 47.376L439.704 69.696L426.096 69.696L413.856 54.504ZM480.816 53.496L451.512 53.496Q452.304 57.168 455.256 59.22Q458.208 61.272 462.6 61.272Q465.624 61.272 467.964 60.372Q470.304 59.472 472.32 57.528L478.296 64.008Q472.752 70.272 462.312 70.272Q457.344 70.272 453.276 68.796Q449.208 67.32 446.292 64.656Q443.376 61.992 441.792 58.32Q440.208 54.648 440.208 50.328Q440.136 46.08 441.72 42.408Q443.304 38.736 446.112 36.036Q448.92 33.336 452.736 31.824Q456.552 30.312 460.872 30.384Q465.192 30.384 468.864 31.788Q472.536 33.192 475.236 35.82Q477.936 38.448 479.484 42.156Q481.032 45.864 481.032 50.472Q481.032 50.688 480.816 53.496ZM451.368 46.944L470.448 46.944Q469.872 43.272 467.28 41.076Q464.688 38.88 460.944 38.88Q457.056 38.88 454.5 41.04Q451.944 43.2 451.368 46.944ZM499.536 35.64Q501.624 33.048 504.936 31.716Q508.248 30.384 512.568 30.384L512.568 40.752Q511.632 40.68 511.02 40.644Q510.408 40.608 510.048 40.608Q505.224 40.608 502.488 43.308Q499.752 46.008 499.752 51.408L499.752 69.696L488.52 69.696L488.52 30.96L499.248 30.96L499.248 35.64L499.536 35.64Z" />
        </g>
      </g>
      <g id="A-Simple-Blazor-Webassembly-To" transform="translate(6 97)">
        <g id="A-Simple-Blazor-Webassembly-Todo-App" fill="#FFFFFF">
          <path d="M6.372 5.76L5.778 5.76L1.62 17.1L0.162 17.1L4.77 4.5L7.362 4.5L11.952 17.1L10.494 17.1L6.372 5.76ZM2.412 12.528L9.756 12.528L9.756 13.788L2.412 13.788L2.412 12.528ZM19.368 13.896Q19.476 14.382 19.827 14.859Q20.178 15.336 20.799 15.651Q21.42 15.966 22.392 15.966Q23.778 15.966 24.444 15.318Q25.11 14.67 25.11 13.788Q25.11 13.086 24.732 12.636Q24.354 12.186 23.706 11.889Q23.058 11.592 22.248 11.358Q21.528 11.16 20.817 10.917Q20.106 10.674 19.53 10.305Q18.954 9.936 18.612 9.342Q18.27 8.748 18.27 7.866Q18.27 6.804 18.774 6.021Q19.278 5.238 20.196 4.806Q21.114 4.374 22.338 4.374Q23.4 4.374 24.192 4.68Q24.984 4.986 25.515 5.535Q26.046 6.084 26.298 6.804L25.02 7.29Q24.894 6.876 24.534 6.489Q24.174 6.102 23.598 5.85Q23.022 5.598 22.284 5.598Q21.564 5.598 20.979 5.85Q20.394 6.102 20.052 6.57Q19.71 7.038 19.71 7.704Q19.71 8.424 20.115 8.847Q20.52 9.27 21.195 9.531Q21.87 9.792 22.68 10.026Q23.418 10.26 24.111 10.53Q24.804 10.8 25.353 11.196Q25.902 11.592 26.226 12.186Q26.55 12.78 26.55 13.644Q26.55 14.598 26.1 15.417Q25.65 16.236 24.741 16.731Q23.832 17.226 22.41 17.226Q21.222 17.226 20.322 16.857Q19.422 16.488 18.846 15.858Q18.27 15.228 18.054 14.418L19.368 13.896ZM29.124 8.1L30.456 8.1L30.456 17.1L29.124 17.1L29.124 8.1ZM29.808 6.3Q29.394 6.3 29.124 6.03Q28.854 5.76 28.854 5.364Q28.854 4.95 29.124 4.68Q29.394 4.41 29.808 4.41Q30.186 4.41 30.465 4.68Q30.744 4.95 30.744 5.364Q30.744 5.76 30.465 6.03Q30.186 6.3 29.808 6.3ZM33.498 8.1L34.74 8.1L34.83 9.396Q35.226 8.748 35.901 8.361Q36.576 7.974 37.512 7.974Q38.466 7.974 39.249 8.433Q40.032 8.892 40.464 9.792Q40.878 8.874 41.724 8.424Q42.57 7.974 43.596 7.974Q44.604 7.974 45.378 8.415Q46.152 8.856 46.584 9.729Q47.016 10.602 47.016 11.916L47.016 17.1L45.666 17.1L45.666 12.078Q45.666 10.674 45.063 9.945Q44.46 9.216 43.344 9.216Q42.21 9.216 41.544 9.999Q40.878 10.782 40.878 12.312L40.878 17.1L39.528 17.1L39.528 12.078Q39.528 10.674 38.952 9.945Q38.376 9.216 37.26 9.216Q36.126 9.216 35.487 9.999Q34.848 10.782 34.848 12.312L34.848 17.1L33.498 17.1L33.498 8.1ZM50.832 15.282L50.976 15.264L50.976 20.7L49.626 20.7L49.626 8.1L50.868 8.1L50.958 9.774Q51.372 9.018 52.182 8.496Q52.992 7.974 54.216 7.974Q55.386 7.974 56.322 8.541Q57.258 9.108 57.798 10.143Q58.338 11.178 58.338 12.6Q58.338 14.004 57.825 15.039Q57.312 16.074 56.385 16.65Q55.458 17.226 54.216 17.226Q52.92 17.226 52.074 16.668Q51.228 16.11 50.832 15.282ZM56.88 12.6Q56.88 11.052 56.079 10.143Q55.278 9.234 53.928 9.234Q53.082 9.234 52.407 9.63Q51.732 10.026 51.354 10.782Q50.976 11.538 50.976 12.6Q50.976 13.644 51.354 14.4Q51.732 15.156 52.407 15.561Q53.082 15.966 53.928 15.966Q55.278 15.966 56.079 15.057Q56.88 14.148 56.88 12.6ZM60.534 4.14L61.884 4.14L61.884 17.1L60.534 17.1L60.534 4.14ZM68.418 17.226Q67.158 17.226 66.177 16.614Q65.196 16.002 64.638 14.94Q64.08 13.878 64.08 12.51Q64.08 11.196 64.638 10.17Q65.196 9.144 66.168 8.559Q67.14 7.974 68.382 7.974Q69.606 7.974 70.569 8.514Q71.532 9.054 72.072 10.008Q72.612 10.962 72.576 12.186Q72.576 12.384 72.558 12.6Q72.54 12.816 72.522 13.068L65.556 13.068Q65.592 13.914 65.97 14.562Q66.348 15.21 66.969 15.579Q67.59 15.948 68.382 15.948Q69.426 15.948 70.155 15.552Q70.884 15.156 71.208 14.418L72.378 14.886Q71.838 16.02 70.812 16.623Q69.786 17.226 68.418 17.226ZM71.1 11.898Q71.118 11.124 70.767 10.53Q70.416 9.936 69.786 9.594Q69.156 9.252 68.328 9.252Q67.608 9.252 67.014 9.594Q66.42 9.936 66.033 10.539Q65.646 11.142 65.574 11.898L71.1 11.898ZM87.588 7.92Q87.588 6.93 86.931 6.345Q86.274 5.76 84.978 5.76L81.414 5.76L81.414 10.062L85.032 10.062Q86.256 10.062 86.922 9.486Q87.588 8.91 87.588 7.92ZM79.974 17.1L79.974 4.5L85.104 4.5Q86.436 4.5 87.3 4.95Q88.164 5.4 88.587 6.129Q89.01 6.858 89.01 7.74Q89.01 8.604 88.695 9.189Q88.38 9.774 87.849 10.116Q87.318 10.458 86.688 10.584L86.688 10.71Q87.444 10.818 88.038 11.187Q88.632 11.556 88.974 12.186Q89.316 12.816 89.316 13.716Q89.316 14.652 88.848 15.426Q88.38 16.2 87.471 16.65C86.865 16.95 86.124 17.1 85.248 17.1L79.974 17.1ZM81.414 15.84L85.14 15.84Q86.436 15.84 87.165 15.255Q87.894 14.67 87.894 13.572Q87.894 12.474 87.129 11.898Q86.364 11.322 85.086 11.322L81.414 11.322L81.414 15.84ZM91.71 4.14L93.06 4.14L93.06 17.1L91.71 17.1L91.71 4.14ZM101.448 17.1L101.34 15.48Q100.962 16.308 100.224 16.767Q99.486 17.226 98.352 17.226Q97.38 17.226 96.696 16.92Q96.012 16.614 95.643 16.047Q95.274 15.48 95.274 14.706Q95.274 13.572 96.12 12.843Q96.966 12.114 98.568 11.952L101.34 11.646L101.34 10.926Q101.34 10.17 100.782 9.711Q100.224 9.252 99.27 9.252Q98.334 9.252 97.713 9.684Q97.092 10.116 96.858 10.926L95.634 10.494Q95.994 9.306 96.957 8.64Q97.92 7.974 99.306 7.974Q100.908 7.974 101.799 8.793Q102.69 9.612 102.69 11.016L102.69 17.1L101.448 17.1ZM101.34 12.798L98.55 13.122Q97.65 13.23 97.182 13.617Q96.714 14.004 96.714 14.634Q96.714 15.264 97.173 15.642Q97.632 16.02 98.496 16.02Q99.486 16.02 100.116 15.624Q100.746 15.228 101.043 14.553Q101.34 13.878 101.34 13.086L101.34 12.798ZM111.582 9.27L106.524 15.84L111.636 15.84L111.636 17.1L104.832 17.1L104.832 15.93L109.89 9.36L104.886 9.36L104.886 8.1L111.582 8.1L111.582 9.27ZM117.828 17.226Q116.55 17.226 115.542 16.668Q114.534 16.11 113.958 15.075Q113.382 14.04 113.382 12.618Q113.382 11.178 113.967 10.134Q114.552 9.09 115.569 8.532Q116.586 7.974 117.864 7.974Q119.142 7.974 120.159 8.532Q121.176 9.09 121.761 10.125Q122.346 11.16 122.346 12.582Q122.346 14.022 121.752 15.066Q121.158 16.11 120.132 16.668Q119.106 17.226 117.828 17.226ZM117.81 15.948Q118.602 15.948 119.304 15.597Q120.006 15.246 120.447 14.499Q120.888 13.752 120.888 12.6Q120.888 11.43 120.456 10.692Q120.024 9.954 119.331 9.603Q118.638 9.252 117.846 9.252Q117.054 9.252 116.37 9.603Q115.686 9.954 115.263 10.701Q114.84 11.448 114.84 12.6Q114.84 13.77 115.254 14.508Q115.668 15.246 116.343 15.597Q117.018 15.948 117.81 15.948ZM124.56 8.1L125.802 8.1L125.874 9.414Q126.234 8.928 126.747 8.586Q127.26 8.244 127.881 8.109Q128.502 7.974 129.204 8.1L129.204 9.45Q128.448 9.306 127.845 9.45Q127.242 9.594 126.81 9.99Q126.378 10.386 126.144 10.989Q125.91 11.592 125.91 12.384L125.91 17.1L124.56 17.1L124.56 8.1ZM140.328 17.1L138.744 17.1L135.198 4.5L136.728 4.5L139.536 15.354L142.632 4.5L144.234 4.5L147.312 15.336L150.138 4.5L151.65 4.5L148.104 17.1L146.52 17.1L143.424 6.66L140.328 17.1ZM156.798 17.226Q155.538 17.226 154.557 16.614Q153.576 16.002 153.018 14.94Q152.46 13.878 152.46 12.51Q152.46 11.196 153.018 10.17Q153.576 9.144 154.548 8.559Q155.52 7.974 156.762 7.974Q157.986 7.974 158.949 8.514Q159.912 9.054 160.452 10.008Q160.992 10.962 160.956 12.186Q160.956 12.384 160.938 12.6Q160.92 12.816 160.902 13.068L153.936 13.068Q153.972 13.914 154.35 14.562Q154.728 15.21 155.349 15.579Q155.97 15.948 156.762 15.948Q157.806 15.948 158.535 15.552Q159.264 15.156 159.588 14.418L160.758 14.886Q160.218 16.02 159.192 16.623Q158.166 17.226 156.798 17.226ZM159.48 11.898Q159.498 11.124 159.147 10.53Q158.796 9.936 158.166 9.594Q157.536 9.252 156.708 9.252Q155.988 9.252 155.394 9.594Q154.8 9.936 154.413 10.539Q154.026 11.142 153.954 11.898L159.48 11.898ZM164.376 9.918Q164.772 9.09 165.618 8.532Q166.464 7.974 167.76 7.974Q169.002 7.974 169.929 8.55Q170.856 9.126 171.369 10.161Q171.882 11.196 171.882 12.6Q171.882 14.004 171.36 15.048Q170.838 16.092 169.911 16.659Q168.984 17.226 167.76 17.226Q166.536 17.226 165.726 16.704Q164.916 16.182 164.502 15.426L164.412 17.1L163.17 17.1L163.17 4.14L164.52 4.14L164.52 9.936L164.376 9.918ZM170.424 12.6Q170.424 11.052 169.623 10.143Q168.822 9.234 167.472 9.234Q166.626 9.234 165.951 9.639Q165.276 10.044 164.898 10.791Q164.52 11.538 164.52 12.6Q164.52 13.662 164.898 14.418Q165.276 15.174 165.951 15.57Q166.626 15.966 167.472 15.966Q168.822 15.966 169.623 15.057Q170.424 14.148 170.424 12.6ZM179.712 17.1L179.604 15.48Q179.226 16.308 178.488 16.767Q177.75 17.226 176.616 17.226Q175.644 17.226 174.96 16.92Q174.276 16.614 173.907 16.047Q173.538 15.48 173.538 14.706Q173.538 13.572 174.384 12.843Q175.23 12.114 176.832 11.952L179.604 11.646L179.604 10.926Q179.604 10.17 179.046 9.711Q178.488 9.252 177.534 9.252Q176.598 9.252 175.977 9.684Q175.356 10.116 175.122 10.926L173.898 10.494Q174.258 9.306 175.221 8.64Q176.184 7.974 177.57 7.974Q179.172 7.974 180.063 8.793Q180.954 9.612 180.954 11.016L180.954 17.1L179.712 17.1ZM179.604 12.798L176.814 13.122Q175.914 13.23 175.446 13.617Q174.978 14.004 174.978 14.634Q174.978 15.264 175.437 15.642Q175.896 16.02 176.76 16.02Q177.75 16.02 178.38 15.624Q179.01 15.228 179.307 14.553Q179.604 13.878 179.604 13.086L179.604 12.798ZM184.32 14.346Q184.428 14.886 184.716 15.237Q185.004 15.588 185.463 15.768Q185.922 15.948 186.534 15.948Q187.488 15.948 187.983 15.579Q188.478 15.21 188.478 14.652Q188.478 14.184 188.181 13.896Q187.884 13.608 187.398 13.419Q186.912 13.23 186.318 13.086Q185.85 12.978 185.31 12.825Q184.77 12.672 184.284 12.402Q183.798 12.132 183.492 11.7Q183.186 11.268 183.186 10.566Q183.186 9.792 183.609 9.207Q184.032 8.622 184.779 8.298Q185.526 7.974 186.498 7.974Q187.614 7.974 188.487 8.46Q189.36 8.946 189.702 9.972L188.442 10.404Q188.316 9.936 187.983 9.684Q187.65 9.432 187.245 9.342Q186.84 9.252 186.444 9.252Q185.634 9.252 185.139 9.567Q184.644 9.882 184.644 10.512Q184.644 10.854 184.806 11.079Q184.968 11.304 185.256 11.448Q185.544 11.592 185.94 11.691Q186.336 11.79 186.804 11.916Q187.326 12.042 187.866 12.231Q188.406 12.42 188.874 12.717Q189.342 13.014 189.639 13.473Q189.936 13.932 189.936 14.616Q189.936 15.408 189.504 15.993Q189.072 16.578 188.307 16.902Q187.542 17.226 186.534 17.226Q185.148 17.226 184.239 16.605Q183.33 15.984 183.024 14.778L184.32 14.346ZM192.87 14.346Q192.978 14.886 193.266 15.237Q193.554 15.588 194.013 15.768Q194.472 15.948 195.084 15.948Q196.038 15.948 196.533 15.579Q197.028 15.21 197.028 14.652Q197.028 14.184 196.731 13.896Q196.434 13.608 195.948 13.419Q195.462 13.23 194.868 13.086Q194.4 12.978 193.86 12.825Q193.32 12.672 192.834 12.402Q192.348 12.132 192.042 11.7Q191.736 11.268 191.736 10.566Q191.736 9.792 192.159 9.207Q192.582 8.622 193.329 8.298Q194.076 7.974 195.048 7.974Q196.164 7.974 197.037 8.46Q197.91 8.946 198.252 9.972L196.992 10.404Q196.866 9.936 196.533 9.684Q196.2 9.432 195.795 9.342Q195.39 9.252 194.994 9.252Q194.184 9.252 193.689 9.567Q193.194 9.882 193.194 10.512Q193.194 10.854 193.356 11.079Q193.518 11.304 193.806 11.448Q194.094 11.592 194.49 11.691Q194.886 11.79 195.354 11.916Q195.876 12.042 196.416 12.231Q196.956 12.42 197.424 12.717Q197.892 13.014 198.189 13.473Q198.486 13.932 198.486 14.616Q198.486 15.408 198.054 15.993Q197.622 16.578 196.857 16.902Q196.092 17.226 195.084 17.226Q193.698 17.226 192.789 16.605Q191.88 15.984 191.574 14.778L192.87 14.346ZM204.462 17.226Q203.202 17.226 202.221 16.614Q201.24 16.002 200.682 14.94Q200.124 13.878 200.124 12.51Q200.124 11.196 200.682 10.17Q201.24 9.144 202.212 8.559Q203.184 7.974 204.426 7.974Q205.65 7.974 206.613 8.514Q207.576 9.054 208.116 10.008Q208.656 10.962 208.62 12.186Q208.62 12.384 208.602 12.6Q208.584 12.816 208.566 13.068L201.6 13.068Q201.636 13.914 202.014 14.562Q202.392 15.21 203.013 15.579Q203.634 15.948 204.426 15.948Q205.47 15.948 206.199 15.552Q206.928 15.156 207.252 14.418L208.422 14.886Q207.882 16.02 206.856 16.623Q205.83 17.226 204.462 17.226ZM207.144 11.898Q207.162 11.124 206.811 10.53Q206.46 9.936 205.83 9.594Q205.2 9.252 204.372 9.252Q203.652 9.252 203.058 9.594Q202.464 9.936 202.077 10.539Q201.69 11.142 201.618 11.898L207.144 11.898ZM210.834 8.1L212.076 8.1L212.166 9.396Q212.562 8.748 213.237 8.361Q213.912 7.974 214.848 7.974Q215.802 7.974 216.585 8.433Q217.368 8.892 217.8 9.792Q218.214 8.874 219.06 8.424Q219.906 7.974 220.932 7.974Q221.94 7.974 222.714 8.415Q223.488 8.856 223.92 9.729Q224.352 10.602 224.352 11.916L224.352 17.1L223.002 17.1L223.002 12.078Q223.002 10.674 222.399 9.945Q221.796 9.216 220.68 9.216Q219.546 9.216 218.88 9.999Q218.214 10.782 218.214 12.312L218.214 17.1L216.864 17.1L216.864 12.078Q216.864 10.674 216.288 9.945Q215.712 9.216 214.596 9.216Q213.462 9.216 212.823 9.999Q212.184 10.782 212.184 12.312L212.184 17.1L210.834 17.1L210.834 8.1ZM228.168 9.918Q228.564 9.09 229.41 8.532Q230.256 7.974 231.552 7.974Q232.794 7.974 233.721 8.55Q234.648 9.126 235.161 10.161Q235.674 11.196 235.674 12.6Q235.674 14.004 235.152 15.048Q234.63 16.092 233.703 16.659Q232.776 17.226 231.552 17.226Q230.328 17.226 229.518 16.704Q228.708 16.182 228.294 15.426L228.204 17.1L226.962 17.1L226.962 4.14L228.312 4.14L228.312 9.936L228.168 9.918ZM234.216 12.6Q234.216 11.052 233.415 10.143Q232.614 9.234 231.264 9.234Q230.418 9.234 229.743 9.639Q229.068 10.044 228.69 10.791Q228.312 11.538 228.312 12.6Q228.312 13.662 228.69 14.418Q229.068 15.174 229.743 15.57Q230.418 15.966 231.264 15.966Q232.614 15.966 233.415 15.057Q234.216 14.148 234.216 12.6ZM237.87 4.14L239.22 4.14L239.22 17.1L237.87 17.1L237.87 4.14ZM248.076 8.1L249.48 8.1L244.332 20.7L243.036 20.7L244.566 16.974L240.93 8.1L242.406 8.1L245.286 15.372L248.076 8.1ZM255.636 4.5L265.086 4.5L265.086 5.76L261.09 5.76L261.09 17.1L259.65 17.1L259.65 5.76L255.636 5.76L255.636 4.5ZM269.406 17.226Q268.128 17.226 267.12 16.668Q266.112 16.11 265.536 15.075Q264.96 14.04 264.96 12.618Q264.96 11.178 265.545 10.134Q266.13 9.09 267.147 8.532Q268.164 7.974 269.442 7.974Q270.72 7.974 271.737 8.532Q272.754 9.09 273.339 10.125Q273.924 11.16 273.924 12.582Q273.924 14.022 273.33 15.066Q272.736 16.11 271.71 16.668Q270.684 17.226 269.406 17.226ZM269.388 15.948Q270.18 15.948 270.882 15.597Q271.584 15.246 272.025 14.499Q272.466 13.752 272.466 12.6Q272.466 11.43 272.034 10.692Q271.602 9.954 270.909 9.603Q270.216 9.252 269.424 9.252Q268.632 9.252 267.948 9.603Q267.264 9.954 266.841 10.701Q266.418 11.448 266.418 12.6Q266.418 13.77 266.832 14.508Q267.246 15.246 267.921 15.597Q268.596 15.948 269.388 15.948ZM283.086 9.918L282.942 9.936L282.942 4.14L284.292 4.14L284.292 17.1L283.05 17.1L282.96 15.426Q282.546 16.182 281.727 16.704Q280.908 17.226 279.702 17.226Q278.46 17.226 277.533 16.659Q276.606 16.092 276.093 15.048Q275.58 14.004 275.58 12.6Q275.58 11.196 276.093 10.161Q276.606 9.126 277.533 8.55Q278.46 7.974 279.702 7.974Q280.98 7.974 281.826 8.532Q282.672 9.09 283.086 9.918ZM277.038 12.6Q277.038 14.148 277.83 15.057Q278.622 15.966 279.99 15.966Q280.836 15.966 281.502 15.57Q282.168 15.174 282.555 14.418Q282.942 13.662 282.942 12.6Q282.942 11.538 282.555 10.791Q282.168 10.044 281.502 9.639Q280.836 9.234 279.99 9.234Q278.64 9.234 277.839 10.143Q277.038 11.052 277.038 12.6ZM290.934 17.226Q289.656 17.226 288.648 16.668Q287.64 16.11 287.064 15.075Q286.488 14.04 286.488 12.618Q286.488 11.178 287.073 10.134Q287.658 9.09 288.675 8.532Q289.692 7.974 290.97 7.974Q292.248 7.974 293.265 8.532Q294.282 9.09 294.867 10.125Q295.452 11.16 295.452 12.582Q295.452 14.022 294.858 15.066Q294.264 16.11 293.238 16.668Q292.212 17.226 290.934 17.226ZM290.916 15.948Q291.708 15.948 292.41 15.597Q293.112 15.246 293.553 14.499Q293.994 13.752 293.994 12.6Q293.994 11.43 293.562 10.692Q293.13 9.954 292.437 9.603Q291.744 9.252 290.952 9.252Q290.16 9.252 289.476 9.603Q288.792 9.954 288.369 10.701Q287.946 11.448 287.946 12.6Q287.946 13.77 288.36 14.508Q288.774 15.246 289.449 15.597Q290.124 15.948 290.916 15.948ZM307.692 5.76L307.098 5.76L302.94 17.1L301.482 17.1L306.09 4.5L308.682 4.5L313.272 17.1L311.814 17.1L307.692 5.76ZM303.732 12.528L311.076 12.528L311.076 13.788L303.732 13.788L303.732 12.528ZM316.008 15.282L316.152 15.264L316.152 20.7L314.802 20.7L314.802 8.1L316.044 8.1L316.134 9.774Q316.548 9.018 317.358 8.496Q318.168 7.974 319.392 7.974Q320.562 7.974 321.498 8.541Q322.434 9.108 322.974 10.143Q323.514 11.178 323.514 12.6Q323.514 14.004 323.001 15.039Q322.488 16.074 321.561 16.65Q320.634 17.226 319.392 17.226Q318.096 17.226 317.25 16.668Q316.404 16.11 316.008 15.282ZM322.056 12.6Q322.056 11.052 321.255 10.143Q320.454 9.234 319.104 9.234Q318.258 9.234 317.583 9.63Q316.908 10.026 316.53 10.782Q316.152 11.538 316.152 12.6Q316.152 13.644 316.53 14.4Q316.908 15.156 317.583 15.561Q318.258 15.966 319.104 15.966Q320.454 15.966 321.255 15.057Q322.056 14.148 322.056 12.6ZM326.916 15.282L327.06 15.264L327.06 20.7L325.71 20.7L325.71 8.1L326.952 8.1L327.042 9.774Q327.456 9.018 328.266 8.496Q329.076 7.974 330.3 7.974Q331.47 7.974 332.406 8.541Q333.342 9.108 333.882 10.143Q334.422 11.178 334.422 12.6Q334.422 14.004 333.909 15.039Q333.396 16.074 332.469 16.65Q331.542 17.226 330.3 17.226Q329.004 17.226 328.158 16.668Q327.312 16.11 326.916 15.282ZM332.964 12.6Q332.964 11.052 332.163 10.143Q331.362 9.234 330.012 9.234Q329.166 9.234 328.491 9.63Q327.816 10.026 327.438 10.782Q327.06 11.538 327.06 12.6Q327.06 13.644 327.438 14.4Q327.816 15.156 328.491 15.561Q329.166 15.966 330.012 15.966Q331.362 15.966 332.163 15.057Q332.964 14.148 332.964 12.6Z" />
        </g>
      </g>
    </g>
    <g id="Group" transform="translate(635.5446 61.2563)">
      <path d="M85.7572 16.9706C95.131 7.5967 110.324 7.5967 119.698 16.9706L188.485 85.7572C197.859 95.131 197.859 110.324 188.485 119.698L119.698 188.485C110.324 197.859 95.131 197.859 85.7572 188.485L16.9706 119.698C7.5967 110.324 7.5967 95.131 16.9706 85.7572L85.7572 16.9706Z" id="Rectangle" fill="#786EE9" stroke="none" />
      <path d="M85.7572 54.9401C95.131 45.5663 110.324 45.5663 119.698 54.9401L188.485 123.727C197.859 133.101 197.859 148.294 188.485 157.668L119.698 226.454C110.324 235.828 95.131 235.828 85.7572 226.454L16.9706 157.668C7.5967 148.294 7.5967 133.101 16.9706 123.727L85.7572 54.9401Z" id="Rectangle-2" fill="#786EE9" fill-opacity="0.61960787" stroke="none" />
      <path d="M85.7572 91.2588C95.131 81.885 110.324 81.885 119.698 91.2588L188.485 160.045C197.859 169.419 197.859 184.613 188.485 193.987L119.698 262.773C110.324 272.147 95.131 272.147 85.7572 262.773L16.9706 193.987C7.5967 184.613 7.5967 169.419 16.9706 160.045L85.7572 91.2588Z" id="Rectangle-2-Copy" fill="#786EE9" fill-opacity="0.3764706" stroke="none" />
      <path d="M138.671 77.9621L88.5633 128.07L67.6849 107.192" id="Vector" fill="none" fill-rule="evenodd" stroke="#FFFFFF" stroke-width="15" stroke-linecap="round" stroke-linejoin="round" />
    </g>
    <path d="M940.777 -132.777C950.15 -142.151 965.344 -142.151 974.718 -132.777L1134.52 27.0294C1143.9 36.4033 1143.9 51.5966 1134.52 60.9705L974.718 220.777C965.344 230.15 950.15 230.151 940.777 220.777L780.97 60.9705C771.597 51.5967 771.597 36.4033 780.97 27.0294L940.777 -132.777Z" id="Rectangle" fill="#786EE9" stroke="none" />
    <path d="M100.777 235.223C110.151 225.849 125.344 225.849 134.718 235.223L294.524 395.029C303.898 404.403 303.898 419.597 294.524 428.971L134.718 588.777C125.344 598.151 110.151 598.151 100.777 588.777L-59.0294 428.971C-68.4033 419.597 -68.4033 404.403 -59.0294 395.029L100.777 235.223Z" id="Rectangle-Copy" fill="#786EE9" stroke="none" />
    <path d="M-3.22331 -223.777C6.15056 -233.151 21.344 -233.151 30.7178 -223.777L149.512 -104.983C158.886 -95.6089 158.886 -80.4155 149.512 -71.0416L-10.2944 88.7645C-19.6682 98.1384 -34.8616 98.1384 -44.2355 88.7645L-163.029 -30.0294C-172.403 -39.4033 -172.403 -54.5967 -163.029 -63.9705L-3.22331 -223.777Z" id="Rectangle-Copy-2" fill="#786EE9" stroke="none" />
  </g>
</svg>